<svg width="10" height="9" viewBox="0 0 10 9" fill="none" xmlns="http://www.w3.org/2000/svg">
<path d="M9.16668 3.66664C9.16668 3.74997 9.12335 3.83334 9.03668 3.91668L7.21876 5.66666L7.64918 8.20831C7.65251 8.20831 7.65418 8.25001 7.65418 8.29168C7.65418 8.37501 7.63585 8.41664 7.59918 8.4583C7.56585 8.49997 7.51585 8.54167 7.44876 8.54167C7.38543 8.54167 7.31876 8.54168 7.24876 8.50001L5.00001 7.29167L2.75143 8.50001C2.67797 8.54168 2.61118 8.54167 2.55109 8.54167C2.48097 8.54167 2.42755 8.49997 2.39084 8.4583C2.35743 8.41664 2.34076 8.37501 2.34076 8.29168C2.34076 8.29168 2.34409 8.24998 2.35076 8.20831L2.78147 5.66666L0.958552 3.91668C0.875093 3.83334 0.833344 3.74997 0.833344 3.66664C0.833344 3.54164 0.926844 3.4583 1.1138 3.4583L3.6278 3.08334L4.75459 0.791677C4.81793 0.666677 4.90001 0.583344 5.00001 0.583344C5.10001 0.583344 5.18209 0.666677 5.24543 0.791677L6.37209 3.08334L8.88626 3.4583C9.07335 3.4583 9.16668 3.54164 9.16668 3.66664Z" fill="#F1C40F"/>
</svg>
